<?xml version="1.0" encoding="utf-8"?><!-- Uploaded to: SVG Repo, www.svgrepo.com, Generator: SVG Repo Mixer Tools -->
<svg width="800px" height="800px" viewBox="0 -0.5 25 25" fill="none" xmlns="http://www.w3.org/2000/svg">
<path d="M5.5 17.25C5.08579 17.25 4.75 17.5858 4.75 18C4.75 18.4142 5.08579 18.75 5.5 18.75V17.25ZM19.5 18.75C19.9142 18.75 20.25 18.4142 20.25 18C20.25 17.5858 19.9142 17.25 19.5 17.25V18.75ZM16.25 6C16.25 5.58579 15.9142 5.25 15.5 5.25C15.0858 5.25 14.75 5.58579 14.75 6H16.25ZM9.5 13.143H8.75H9.5ZM10.25 6C10.25 5.58579 9.91421 5.25 9.5 5.25C9.08579 5.25 8.75 5.58579 8.75 6H10.25ZM5.5 18.75H19.5V17.25H5.5V18.75ZM14.75 6V13.143H16.25V6H14.75ZM14.75 13.143C14.75 14.3856 13.7426 15.393 12.5 15.393V16.893C14.5711 16.893 16.25 15.2141 16.25 13.143H14.75ZM12.5 15.393C11.2574 15.393 10.25 14.3856 10.25 13.143H8.75C8.75 15.2141 10.4289 16.893 12.5 16.893V15.393ZM10.25 13.143V6H8.75V13.143H10.25Z" fill="#000000"/>
</svg>